<?xml version="1.0" encoding="UTF-8" standalone="no"?>
<!-- Created with Inkscape (http://www.inkscape.org/) -->

<svg
   xmlns:dc="http://purl.org/dc/elements/1.1/"
   xmlns:cc="http://creativecommons.org/ns#"
   xmlns:rdf="http://www.w3.org/1999/02/22-rdf-syntax-ns#"
   xmlns:svg="http://www.w3.org/2000/svg"
   xmlns="http://www.w3.org/2000/svg"
   xmlns:sodipodi="http://sodipodi.sourceforge.net/DTD/sodipodi-0.dtd"
   xmlns:inkscape="http://www.inkscape.org/namespaces/inkscape"
   width="146.90576mm"
   height="19.298046mm"
   viewBox="0 0 146.90576 19.298046"
   version="1.1"
   id="svg8"
   sodipodi:docname="logo.svg"
   inkscape:version="0.92.4 (5da689c313, 2019-01-14)">
  <defs
     id="defs2" />
  <sodipodi:namedview
     id="base"
     pagecolor="#ffffff"
     bordercolor="#666666"
     borderopacity="1.0"
     inkscape:pageopacity="0.0"
     inkscape:pageshadow="2"
     inkscape:zoom="0.49497475"
     inkscape:cx="-175.7399"
     inkscape:cy="-72.654948"
     inkscape:document-units="mm"
     inkscape:current-layer="layer1"
     showgrid="false"
     fit-margin-top="0"
     fit-margin-left="0"
     fit-margin-right="0"
     fit-margin-bottom="0"
     inkscape:window-width="1325"
     inkscape:window-height="740"
     inkscape:window-x="41"
     inkscape:window-y="0"
     inkscape:window-maximized="1" />
  <metadata
     id="metadata5">
    <rdf:RDF>
      <cc:Work
         rdf:about="">
        <dc:format>image/svg+xml</dc:format>
        <dc:type
           rdf:resource="http://purl.org/dc/dcmitype/StillImage" />
        <dc:title></dc:title>
      </cc:Work>
    </rdf:RDF>
  </metadata>
  <g
     inkscape:label="Layer 1"
     inkscape:groupmode="layer"
     id="layer1"
     transform="translate(-33.659695,-110.75483)">
    <g
       aria-label="Reuben John"
       style="font-style:normal;font-variant:normal;font-weight:normal;font-stretch:normal;font-size:25.39999962px;line-height:1.25;font-family:Roboto;-inkscape-font-specification:Roboto;letter-spacing:0px;word-spacing:0px;fill:#4e0c99;fill-opacity:1;stroke:none;stroke-width:0.26458332"
       id="text3715">
      <path
         d="m 40.344558,123.19438 h -2.96416 v 6.61044 h -3.720703 v -18.05781 h 6.709668 q 3.199804,0 4.936132,1.42627 1.736328,1.42627 1.736328,4.03076 0,1.84795 -0.806152,3.08819 -0.79375,1.22783 -2.418457,1.95957 l 3.906738,7.37939 v 0.17363 h -3.993554 z m -2.96416,-3.01377 h 3.001367 q 1.401465,0 2.17041,-0.70694 0.768945,-0.71933 0.768945,-1.97197 0,-1.27744 -0.731738,-2.00918 -0.719336,-0.73174 -2.220019,-0.73174 h -2.988965 z"
         style="font-weight:bold;font-size:25.39999962px;stroke-width:0.26458332;fill:#4e0c99;fill-opacity:1"
         id="path3717" />
      <path
         d="m 55.822682,130.05287 q -2.951757,0 -4.812109,-1.81074 -1.847949,-1.81074 -1.847949,-4.82451 v -0.34727 q 0,-2.02158 0.781348,-3.60908 0.781347,-1.5999 2.207617,-2.45566 1.438672,-0.86817 3.274218,-0.86817 2.753321,0 4.328418,1.73633 1.5875,1.73633 1.5875,4.92373 v 1.46348 h -8.545214 q 0.173632,1.31465 1.041796,2.1084 0.880567,0.79375 2.22002,0.79375 2.071191,0 3.237012,-1.50069 l 1.761132,1.97197 q -0.806152,1.14102 -2.182812,1.78594 -1.37666,0.63252 -3.050977,0.63252 z m -0.409277,-11.01328 q -1.066601,0 -1.736328,0.71934 -0.657324,0.71933 -0.843359,2.05879 h 4.985742 v -0.28526 q -0.02481,-1.19062 -0.644922,-1.83555 -0.620117,-0.65732 -1.761133,-0.65732 z"
         style="font-weight:bold;font-size:25.39999962px;stroke-width:0.26458332;fill:#4e0c99;fill-opacity:1"
         id="path3719" />
      <path
         d="m 71.42483,128.44057 q -1.32705,1.6123 -3.671093,1.6123 -2.158008,0 -3.299024,-1.24023 -1.128613,-1.24024 -1.153418,-3.63389 v -8.79326 h 3.584278 v 8.66924 q 0,2.09599 1.909961,2.09599 1.823144,0 2.505273,-1.26504 v -9.50019 h 3.59668 v 13.41933 h -3.373438 z"
         style="font-weight:bold;font-size:25.39999962px;stroke-width:0.26458332;fill:#4e0c99;fill-opacity:1"
         id="path3721" />
      <path
         d="m 89.718285,123.21918 q 0,3.22461 -1.37666,5.03535 -1.37666,1.79834 -3.844726,1.79834 -2.182813,0 -3.485059,-1.67431 l -0.16123,1.42626 H 77.626 v -19.04999 h 3.584277 v 6.83369 q 1.240235,-1.45108 3.261817,-1.45108 2.455664,0 3.844726,1.81074 1.401465,1.79834 1.401465,5.07256 z m -3.584277,-0.26045 q 0,-2.03398 -0.644922,-2.96416 -0.644922,-0.94258 -1.922363,-0.94258 -1.711524,0 -2.356446,1.40147 v 5.2958 q 0.657325,1.41387 2.38125,1.41387 1.736329,0 2.282032,-1.71153 0.260449,-0.81855 0.260449,-2.49287 z"
         style="font-weight:bold;font-size:25.39999962px;stroke-width:0.26458332;fill:#4e0c99;fill-opacity:1"
         id="path3723" />
      <path
         d="m 98.08987,130.05287 q -2.951758,0 -4.81211,-1.81074 -1.847949,-1.81074 -1.847949,-4.82451 v -0.34727 q 0,-2.02158 0.781348,-3.60908 0.781347,-1.5999 2.207617,-2.45566 1.438672,-0.86817 3.274219,-0.86817 2.753315,0 4.328415,1.73633 1.5875,1.73633 1.5875,4.92373 v 1.46348 h -8.545212 q 0.173633,1.31465 1.041797,2.1084 0.880566,0.79375 2.220019,0.79375 2.071196,0 3.237016,-1.50069 l 1.76113,1.97197 q -0.80615,1.14102 -2.18281,1.78594 -1.376664,0.63252 -3.05098,0.63252 z m -0.409278,-11.01328 q -1.066601,0 -1.736328,0.71934 -0.657324,0.71933 -0.843359,2.05879 h 4.985745 v -0.28526 q -0.0248,-1.19062 -0.644925,-1.83555 -0.620117,-0.65732 -1.761133,-0.65732 z"
         style="font-weight:bold;font-size:25.39999962px;stroke-width:0.26458332;fill:#4e0c99;fill-opacity:1"
         id="path3725" />
      <path
         d="m 108.95432,116.38549 0.11162,1.55029 q 1.43867,-1.79834 3.85713,-1.79834 2.1332,0 3.175,1.25264 1.0418,1.25264 1.0666,3.74551 v 8.66923 h -3.58428 v -8.58242 q 0,-1.14101 -0.49609,-1.64951 -0.49609,-0.5209 -1.64951,-0.5209 -1.51309,0 -2.26963,1.28985 v 9.46298 h -3.58428 v -13.41933 z"
         style="font-weight:bold;font-size:25.39999962px;stroke-width:0.26458332;fill:#4e0c99;fill-opacity:1"
         id="path3727" />
      <path
         d="m 133.75901,111.74701 h 3.7207 v 12.50156 q 0,1.72393 -0.76894,3.05098 -0.75655,1.31465 -2.14561,2.03399 -1.38906,0.71933 -3.13779,0.71933 -2.86494,0 -4.46485,-1.45107 -1.5999,-1.46348 -1.5999,-4.12998 h 3.74551 q 0,1.32705 0.5581,1.95957 0.55811,0.63252 1.76114,0.63252 1.0666,0 1.69912,-0.73174 0.63252,-0.73174 0.63252,-2.0836 z"
         style="font-weight:bold;font-size:25.39999962px;stroke-width:0.26458332;fill:#4e0c99;fill-opacity:1"
         id="path3729" />
      <path
         d="m 139.87336,122.97113 q 0,-1.99677 0.76895,-3.55947 0.76894,-1.56269 2.20761,-2.41846 1.45108,-0.85576 3.36104,-0.85576 2.71611,0 4.42763,1.66192 1.72393,1.66191 1.92237,4.51445 l 0.0248,0.91777 q 0,3.08819 -1.72392,4.96094 -1.72393,1.86035 -4.62608,1.86035 -2.90215,0 -4.63847,-1.86035 -1.72393,-1.86035 -1.72393,-5.06016 z m 3.58428,0.26045 q 0,1.90996 0.71933,2.92696 0.71934,1.00459 2.05879,1.00459 1.30225,0 2.03399,-0.99219 0.73174,-1.00459 0.73174,-3.19981 0,-1.87275 -0.73174,-2.90214 -0.73174,-1.0294 -2.05879,-1.0294 -1.31465,0 -2.03399,1.0294 -0.71933,1.01699 -0.71933,3.16259 z"
         style="font-weight:bold;font-size:25.39999962px;stroke-width:0.26458332;fill:#4e0c99;fill-opacity:1"
         id="path3731" />
      <path
         d="m 158.31565,117.84897 q 1.42627,-1.71153 3.58427,-1.71153 4.36563,0 4.42764,5.07256 v 8.59482 h -3.58428 v -8.4956 q 0,-1.15342 -0.49609,-1.69912 -0.4961,-0.55811 -1.64951,-0.55811 -1.5751,0 -2.28203,1.21543 v 9.5374 h -3.58428 v -19.04999 h 3.58428 z"
         style="font-weight:bold;font-size:25.39999962px;stroke-width:0.26458332;fill:#4e0c99;fill-opacity:1"
         id="path3733" />
      <path
         d="m 172.35511,116.38549 0.11162,1.55029 q 1.43867,-1.79834 3.85713,-1.79834 2.1332,0 3.175,1.25264 1.04179,1.25264 1.0666,3.74551 v 8.66923 h -3.58428 v -8.58242 q 0,-1.14101 -0.49609,-1.64951 -0.4961,-0.5209 -1.64951,-0.5209 -1.51309,0 -2.26963,1.28985 v 9.46298 h -3.58428 v -13.41933 z"
         style="font-weight:bold;font-size:25.39999962px;stroke-width:0.26458332;fill:#4e0c99;fill-opacity:1"
         id="path3735" />
    </g>
    <flowRoot
       xml:space="preserve"
       id="flowRoot3738"
       style="fill:black;fill-opacity:1;stroke:none;font-family:Roboto;font-style:normal;font-weight:normal;font-size:40px;line-height:1.25;letter-spacing:0px;word-spacing:0px;-inkscape-font-specification:Roboto;font-stretch:normal;font-variant:normal"><flowRegion
         id="flowRegion3740"><rect
           id="rect3742"
           width="1311.178"
           height="624.27429"
           x="-335.37064"
           y="-165.4585" /></flowRegion><flowPara
         id="flowPara3744"></flowPara></flowRoot>  </g>
</svg>
